<svg xmlns="http://www.w3.org/2000/svg" fill="none" viewBox="0 0 188 65" height="65" width="188">
<path fill="black" d="M32.4975 62.2428C32.2013 61.6788 32.0575 60.7417 32.0575 59.4314V44.6324C32.0575 43.301 32.1929 42.3596 32.4594 41.8211C32.8189 41.0705 33.5592 40.5998 34.6844 40.409V39.8535H25.9746V40.409C27.121 40.5956 27.8951 41.0663 28.28 41.8211C28.5719 42.385 28.7157 43.3222 28.7157 44.6324V59.4314C28.7157 60.7672 28.5846 61.7043 28.3181 62.2428C27.9543 62.9976 27.2098 63.4683 26.0888 63.6591V64.2104H34.8029V63.6591C33.6565 63.4725 32.8824 62.9976 32.4975 62.2428Z"></path>
<path fill="black" d="M58.8649 53.2639H59.0045C59.1779 53.2639 59.5121 53.2724 59.9097 53.3063H59.9436C60.1001 53.3233 60.2735 53.3402 60.4596 53.3657C60.5485 53.3826 60.6331 53.3911 60.7219 53.4081C60.7473 53.4081 60.7642 53.4165 60.7727 53.4165C62.1178 53.7643 63.1288 54.9134 63.2938 56.3212C63.3023 56.4018 63.3107 56.4781 63.3107 56.5587C63.3107 56.6392 63.3192 56.7156 63.3192 56.8046V61.1256C63.0315 61.9737 62.0882 62.6648 60.4935 63.2076C59.1694 63.6444 57.9385 63.8649 56.7964 63.8649C53.2727 63.8649 50.5146 62.7454 48.5265 60.515C46.6145 58.4075 45.6669 55.6173 45.6669 52.1444C45.6669 48.6715 46.5722 45.822 48.408 43.6721C50.3454 41.3569 53.0908 40.1992 56.6441 40.1992C58.7887 40.1992 60.6669 40.7166 62.2532 41.747C63.831 42.7604 64.9309 44.2403 65.54 46.1697H66.2295C66.2295 46.1697 66.5595 44.7619 66.0645 42.0056C66.0011 41.624 65.9503 41.395 65.9503 41.395C65.1551 40.7547 63.6111 40.2162 61.3353 39.7752C59.4782 39.4148 57.82 39.2324 56.3649 39.2324C52.2574 39.2324 48.8183 40.3858 46.0645 42.7053C43.15 45.1181 41.6948 48.2941 41.6948 52.2208C41.6948 56.1474 43.0992 59.1029 45.908 61.4733C48.5857 63.7037 51.9106 64.8232 55.8953 64.8232C60.1339 64.8232 63.7887 63.8606 66.8683 61.927V55.647C66.8683 54.2561 67.6339 53.4717 69.1695 53.2851V52.683H58.8691V53.2597L58.8649 53.2639Z"></path>
<path fill="black" d="M96.2547 40.4129C97.5703 40.5783 98.4586 40.9938 98.9197 41.6681C99.3427 42.2575 99.5584 43.2497 99.5584 44.6363V58.7399C91.3351 50.3142 85.1591 44.0215 81.0221 39.8574H74.8588C74.8588 39.8574 74.8376 40.0991 74.8165 40.4129C74.8165 40.4129 77.6803 40.7988 77.6803 42.6349V59.4353C77.6803 60.7965 77.4941 61.776 77.1261 62.3654C76.6608 63.0609 75.8106 63.4934 74.5796 63.6588V64.2143H82.4561V63.6588C81.1701 63.4934 80.2945 63.0778 79.8292 62.4036C79.4315 61.8142 79.2327 60.8262 79.2327 59.4353V42.902L97.5111 61.687L99.9857 64.333L100.375 64.6765H101.111V64.2863V44.6363C101.111 43.2794 101.293 42.3126 101.665 41.7486C102.105 41.0193 102.959 40.574 104.212 40.4087V39.8574H96.2547V40.4172V40.4129Z"></path>
<path fill="black" d="M132.845 60.2801L125.168 43.1404L123.492 39.5997L123.476 39.5827L123.378 39.4004H121.572L120.832 40.8252L112.439 59.1606C111.242 61.7939 109.85 63.2865 108.26 63.6555V64.2152H116.136V63.6555C114.305 63.418 113.395 62.7565 113.395 61.671C113.395 61.1027 113.649 60.2547 114.152 59.1267L116.902 52.9273H125.984L129.131 60.1317C129.41 60.7974 129.558 61.3656 129.567 61.8194C129.584 61.8448 129.584 61.8703 129.575 61.9084V62.0229V62.0399C129.55 62.642 129.173 63.1424 128.649 63.3586C128.239 63.507 127.689 63.6131 126.991 63.6639V64.2152H136.454V63.6639C134.977 63.524 133.776 62.3961 132.833 60.2801H132.845ZM117.469 51.6127L121.5 42.7969L125.54 51.6127H117.469Z"></path>
<path fill="black" d="M162.278 59.5841C160.637 61.8442 157.849 62.9722 153.928 62.9722H150.506C149.338 62.9722 148.543 62.705 148.116 62.1665C147.744 61.7297 147.562 60.9198 147.562 59.7367V44.6324C147.562 43.2204 147.79 42.2027 148.255 41.5709C148.708 40.9518 149.609 40.5659 150.942 40.4048V39.8535H141.513V40.409C142.659 40.5956 143.433 41.0663 143.818 41.8211C144.08 42.3384 144.22 43.2755 144.22 44.6324V59.4314C144.22 60.7926 144.021 61.7721 143.619 62.3615C143.154 63.0654 142.278 63.498 140.997 63.6633V64.2104L161.039 64.1722L163.306 59.2745L162.832 58.8166L162.274 59.5883L162.278 59.5841Z"></path>
<path fill="black" d="M11.4577 50.1987C6.41541 48.6552 3.89849 46.7386 3.89849 44.4488C3.89849 43.0325 4.45264 41.9384 5.56939 41.1667C6.57616 40.4713 7.83674 40.1278 9.35112 40.1278C11.0982 40.1278 12.7056 40.5264 14.1608 41.3278C15.8021 42.2098 16.8554 43.4099 17.3037 44.9406H17.8579V44.8855C17.8579 42.0232 17.3714 40.9886 17.308 40.8699C17.308 40.8614 17.2995 40.8571 17.2995 40.8571C14.8334 39.7758 12.3545 39.2373 9.85873 39.2373C7.49833 39.2373 5.4721 39.725 3.77582 40.7002C1.73267 41.8536 0.713213 43.5116 0.713213 45.67C0.713213 48.7019 3.65315 51.1443 9.54147 52.9932C14.0212 54.4094 16.2674 56.3473 16.2674 58.811C16.2674 60.4562 15.5102 61.7411 13.9958 62.6655C12.6971 63.4372 11.1489 63.8231 9.34689 63.8231C7.3545 63.8231 5.57785 63.3482 4.01694 62.3941C2.29105 61.3425 1.27159 59.9177 0.95433 58.1198H0.23521C0.23521 58.1198 -0.297785 60.804 0.873958 62.9369C3.86888 64.192 6.6946 64.8239 9.34689 64.8239C11.9992 64.8239 14.1988 64.2472 16.1066 63.0895C18.3613 61.7496 19.4865 59.888 19.4865 57.4922C19.4865 54.2483 16.8088 51.8186 11.4535 50.1987H11.4577Z"></path>
<path fill="black" d="M179.846 50.1987C174.804 48.6552 172.287 46.7386 172.287 44.4488C172.287 43.0325 172.841 41.9384 173.958 41.1667C174.965 40.4713 176.225 40.1278 177.74 40.1278C179.487 40.1278 181.094 40.5264 182.549 41.3278C184.191 42.2098 185.244 43.4099 185.692 44.9406H186.246V44.8855C186.246 42.0232 185.76 40.9886 185.696 40.8699C185.696 40.8614 185.688 40.8571 185.688 40.8571C183.222 39.7758 180.743 39.2373 178.247 39.2373C175.887 39.2373 173.861 39.725 172.164 40.7002C170.121 41.8536 169.102 43.5116 169.102 45.67C169.102 48.7019 172.042 51.1443 177.93 52.9932C182.41 54.4094 184.656 56.3473 184.656 58.811C184.656 60.4562 183.899 61.7411 182.384 62.6655C181.086 63.4372 179.537 63.8231 177.735 63.8231C175.743 63.8231 173.966 63.3482 172.405 62.3941C170.68 61.3425 169.66 59.9177 169.343 58.1198H168.624L168.577 59.7142C168.598 60.7404 168.742 62.0506 169.267 62.9369C172.262 64.192 175.087 64.8239 177.74 64.8239C180.392 64.8239 182.592 64.2472 184.499 63.0895C186.754 61.7496 187.879 59.888 187.879 57.4922C187.879 54.2483 185.202 51.8186 179.846 50.1987Z"></path>
<path fill="black" d="M109.317 19.2918C109.363 19.4614 109.566 20.3053 109.452 21.0007V21.0516C109.427 21.2891 109.338 21.4799 109.22 21.6325C109.173 21.6792 109.122 21.7216 109.072 21.7597C109.046 21.7809 109.021 21.7979 108.983 21.8064C108.945 21.8403 108.911 21.853 108.868 21.8573C108.805 21.8912 108.742 21.9166 108.657 21.9166C108.648 21.9251 108.644 21.9251 108.632 21.9251H108.471C108.179 21.9251 107.891 21.8276 107.599 21.6325C107.32 21.4332 106.995 21.1152 106.618 20.6869L103.949 17.3582L105.328 14.373C105.484 14.0168 105.62 13.7708 105.755 13.6182C105.878 13.4613 106.005 13.3977 106.148 13.3977C106.271 13.3977 106.368 13.4613 106.453 13.6055C106.542 13.7496 106.622 13.9277 106.703 14.1482C106.787 14.3602 106.897 14.5765 107.037 14.7885C107.172 15.0218 107.346 15.1914 107.574 15.3313C107.794 15.4585 108.069 15.5433 108.424 15.5433C108.623 15.5433 108.809 15.4967 108.991 15.4331C109.177 15.361 109.338 15.2592 109.495 15.1278C109.651 14.9836 109.765 14.8097 109.854 14.602C109.943 14.3772 109.989 14.144 109.989 13.8599C109.989 13.5376 109.905 13.2323 109.744 12.9567C109.571 12.6853 109.342 12.4648 109.055 12.2909C108.763 12.1298 108.429 12.0408 108.035 12.0408C107.468 12.0408 106.927 12.2401 106.402 12.6302C105.886 13.0118 105.442 13.5546 105.099 14.2458L103.758 17.125L102.764 15.891C101.791 14.6868 100.231 14.1016 98.7246 14.4493C98.5427 14.4875 98.4158 14.5341 98.3439 14.5511L100.806 13.4655C101.948 12.8591 102.98 12.1128 103.555 11.481C104.122 10.8365 104.406 10.1877 104.406 9.53468C104.406 8.95799 104.245 8.47458 103.911 8.08446C103.577 7.70283 103.115 7.39752 102.536 7.19398C101.969 6.99468 101.335 6.88867 100.654 6.88867C99.7906 6.88867 99.0292 7.03285 98.3566 7.30847C97.684 7.59258 97.1553 7.98269 96.7745 8.47034C96.4446 8.89014 96.2585 9.40323 96.2204 9.97144C96.2119 10.0435 96.2119 10.0987 96.2119 10.1707C96.2119 10.5524 96.2838 10.9383 96.4361 11.3496C96.5926 11.7524 96.8168 12.1849 97.1214 12.6429C97.2779 12.8761 97.4514 13.1221 97.629 13.3722L97.6502 13.3977C97.684 13.385 97.7602 13.3468 97.8744 13.2874C98.0859 13.1772 98.2932 13.0415 98.4751 12.8846C98.6739 12.715 98.8431 12.5242 98.9446 12.2782C99.0461 12.0535 99.0926 11.7948 99.0926 11.5489C99.0926 11.3156 99.0461 11.0909 98.9573 10.8619C98.8346 10.5821 98.6992 10.3234 98.6231 10.0266C98.5512 9.75942 98.5131 9.48803 98.5131 9.21241C98.5131 8.56787 98.695 8.0675 99.0673 7.71131C99.4353 7.36784 99.9683 7.18126 100.666 7.18126C101.174 7.18126 101.588 7.27031 101.944 7.46113C102.299 7.66042 102.561 7.92757 102.743 8.288C102.925 8.6442 103.014 9.07672 103.014 9.55588C103.014 9.97568 102.904 10.4294 102.697 10.9001C102.477 11.3793 102.202 11.8245 101.825 12.2401C101.825 12.2401 101.822 12.2485 101.817 12.2655C101.36 12.7616 100.78 13.1517 100.159 13.4358C100.159 13.4358 100.07 13.4613 99.9133 13.5376C99.8921 13.5503 99.8752 13.5588 99.8541 13.5631L99.6849 13.6351C99.6003 13.6606 99.5114 13.6987 99.4057 13.7454C98.5554 14.127 97.1595 14.7419 96.195 15.2974C96.0808 15.3567 95.9751 15.4203 95.8651 15.4797C95.7043 15.59 95.5478 15.7002 95.3955 15.7977C95.3871 15.8189 95.3744 15.8189 95.3701 15.8232C95.3617 15.8232 95.3575 15.8232 95.349 15.8317C94.4649 16.4635 93.9573 17.4939 93.9488 18.5794C93.9446 17.4939 93.437 16.4592 92.5486 15.8317C92.5402 15.8232 92.536 15.8232 92.5275 15.8232C92.519 15.8147 92.5063 15.8147 92.5021 15.7977C92.3456 15.7002 92.1933 15.59 92.0326 15.4797C91.9226 15.4203 91.8211 15.3567 91.7026 15.2974C90.7339 14.7419 89.3422 14.127 88.492 13.7454C88.3904 13.6987 88.2974 13.6606 88.2128 13.6351L88.0436 13.5631C88.0436 13.5631 88.0055 13.5503 87.9844 13.5376C87.8278 13.4613 87.739 13.4358 87.739 13.4358C87.1214 13.1517 86.5377 12.7616 86.0808 12.2655C86.0808 12.2655 86.078 12.257 86.0723 12.2401C85.7001 11.8245 85.4209 11.3793 85.2009 10.9001C84.9937 10.4294 84.8837 9.97568 84.8837 9.55588C84.8837 9.07672 84.9725 8.6442 85.1544 8.288C85.3363 7.92757 85.5986 7.66042 85.9539 7.46113C86.3092 7.27455 86.7195 7.18126 87.2314 7.18126C87.9294 7.18126 88.4624 7.36784 88.8304 7.71131C89.2026 8.0675 89.3845 8.56363 89.3845 9.21241C89.3845 9.49228 89.3465 9.76366 89.2745 10.0266C89.1984 10.3234 89.063 10.5821 88.9404 10.8619C88.8515 11.0867 88.805 11.3156 88.805 11.5489C88.805 11.7948 88.8515 12.0535 88.953 12.2782C89.0546 12.5242 89.2238 12.7192 89.4226 12.8846C89.6045 13.0415 89.8075 13.1772 90.0233 13.2874C90.1375 13.3468 90.2179 13.385 90.2475 13.3977L90.2686 13.3722C90.4505 13.1221 90.624 12.8761 90.7762 12.6429C91.0808 12.1849 91.305 11.7524 91.4615 11.3496C91.618 10.9425 91.6857 10.5524 91.6857 10.1707C91.6857 10.0987 91.6857 10.0435 91.6772 9.97144C91.6392 9.40323 91.4531 8.89014 91.1231 8.47034C90.7424 7.97845 90.2136 7.59258 89.541 7.30847C88.8684 7.0286 88.107 6.88867 87.2441 6.88867C86.5588 6.88867 85.9285 6.99044 85.3617 7.19398C84.7822 7.40176 84.3253 7.70283 83.9869 8.08446C83.6527 8.47458 83.492 8.95799 83.492 9.53468C83.492 10.1877 83.7754 10.8322 84.3422 11.481C84.9175 12.1128 85.9497 12.8591 87.0918 13.4655L89.5537 14.5511C89.4818 14.5299 89.3549 14.4875 89.173 14.4493C87.6713 14.1016 86.1104 14.6868 85.1332 15.891L84.1392 17.125L82.7982 14.2458C82.4556 13.5546 82.0114 13.0118 81.4953 12.6302C80.9708 12.2401 80.4294 12.0408 79.8625 12.0408C79.4691 12.0408 79.1349 12.1298 78.8431 12.2909C78.5512 12.4648 78.327 12.6853 78.1536 12.9567C77.9928 13.2365 77.9082 13.5376 77.9082 13.8599C77.9082 14.144 77.9547 14.3772 78.0436 14.602C78.1324 14.8097 78.2508 14.9836 78.4031 15.1278C78.5596 15.255 78.7204 15.361 78.9065 15.4331C79.0884 15.4967 79.2745 15.5433 79.4734 15.5433C79.8287 15.5433 80.1036 15.4585 80.3236 15.3313C80.5478 15.1871 80.7255 15.0218 80.8608 14.7885C81.0047 14.5765 81.1104 14.3602 81.195 14.1482C81.2796 13.9277 81.3558 13.7454 81.4446 13.6055C81.5292 13.4613 81.6265 13.3977 81.7492 13.3977C81.893 13.3977 82.0199 13.4613 82.1426 13.6182C82.2779 13.7751 82.4133 14.021 82.5698 14.373L83.9488 17.3582L81.2796 20.6869C80.9074 21.1152 80.5774 21.429 80.2982 21.6325C80.0063 21.8276 79.7187 21.9251 79.4268 21.9251H79.2661C79.2661 21.9251 79.2449 21.9251 79.2407 21.9166C79.1561 21.9166 79.0926 21.8912 79.0292 21.8573C78.9827 21.853 78.953 21.8361 78.915 21.8064C78.8769 21.7979 78.8515 21.7809 78.8261 21.7597C78.7754 21.7216 78.7246 21.6749 78.6781 21.6325C78.5639 21.4756 78.4708 21.2891 78.4454 21.0516V21.0007C78.3312 20.3095 78.5343 19.4614 78.5808 19.2918C78.3989 19.6226 78.2635 19.9661 78.1536 20.3053C78.0563 20.6615 77.997 20.9922 77.997 21.3145C77.997 21.7597 78.0816 22.1668 78.2424 22.5442C78.4158 22.9046 78.6612 23.1972 78.9827 23.4093C79.3126 23.6213 79.7356 23.7188 80.2517 23.7188C80.6578 23.7188 81.0596 23.6298 81.4573 23.4517C81.8422 23.2651 82.2652 22.9852 82.7009 22.5993C83.1451 22.205 83.6189 21.6877 84.1349 21.0346L84.5157 20.5894L85.2982 19.6692L85.4717 19.4572L86.1739 18.6176L89.613 14.568C89.613 14.568 90.5816 14.9878 91.453 15.7893C91.5377 15.8656 91.6265 15.9462 91.6984 16.0225C91.7449 16.0734 91.7872 16.12 91.8338 16.1667C92.1891 16.5865 92.4514 16.9935 92.6079 17.4006C92.7813 17.8331 92.8659 18.2911 92.8659 18.7915C92.8659 19.436 92.7305 20.0127 92.4471 20.5173C92.1679 21.0262 91.7576 21.4375 91.2331 21.7216C90.717 22.0269 90.0909 22.1668 89.3761 22.1668C88.5427 22.1668 87.8067 21.959 87.1764 21.4926C86.7322 21.1958 86.3135 20.7505 85.9201 20.1611L85.7339 20.3477C86.1146 20.9498 86.5292 21.446 86.9353 21.8785C87.5402 22.4933 88.1536 22.9513 88.8008 23.2608C89.4522 23.5704 90.1375 23.7146 90.8651 23.7146C91.6392 23.7146 92.3414 23.5534 92.9674 23.2184C93.3397 23.0319 93.6569 22.7732 93.9319 22.4891C94.2111 22.7732 94.5241 23.0319 94.8964 23.2184C95.5224 23.5534 96.2246 23.7146 96.9987 23.7146C97.7263 23.7146 98.4116 23.5704 99.063 23.2608C99.706 22.9513 100.319 22.4933 100.929 21.8785C101.335 21.446 101.749 20.9456 102.13 20.3477L101.944 20.1611C101.55 20.7505 101.132 21.1958 100.687 21.4926C100.057 21.959 99.3211 22.1668 98.4877 22.1668C97.7729 22.1668 97.1468 22.0226 96.6307 21.7216C96.1062 21.4375 95.6959 21.0304 95.4167 20.5173C95.1333 20.0127 94.9979 19.436 94.9979 18.7915C94.9979 18.2953 95.0825 17.8331 95.2559 17.4006C95.4124 16.9935 95.6747 16.5865 96.03 16.1667C96.0766 16.12 96.1189 16.0776 96.1654 16.0225C96.2373 15.9462 96.3261 15.8656 96.4108 15.7893C97.2822 14.9878 98.2509 14.568 98.2509 14.568L101.69 18.6176L102.392 19.4572L102.566 19.6692L103.348 20.5894L103.729 21.0346C104.245 21.6877 104.714 22.205 105.163 22.5993C105.603 22.9852 106.022 23.2651 106.407 23.4517C106.808 23.6255 107.206 23.7188 107.612 23.7188C108.128 23.7188 108.555 23.6213 108.881 23.4093C109.203 23.1972 109.448 22.9046 109.621 22.5442C109.782 22.1711 109.867 21.764 109.867 21.3145C109.867 20.9922 109.808 20.6615 109.71 20.3053C109.6 19.9618 109.465 19.6183 109.283 19.2918H109.317Z"></path>
<path fill="black" d="M95.828 4.08508C95.0327 3.07163 94.4109 1.98609 93.9667 0.824219C93.5226 1.98185 92.8965 3.06739 92.1055 4.08508C92.9007 5.09854 93.5226 6.18408 93.9667 7.34595C94.4109 6.18832 95.0369 5.10278 95.828 4.08508Z"></path>
</svg>
